<svg xmlns="http://www.w3.org/2000/svg" width="93.383" height="85.401" viewBox="0 0 93.383 85.401">
  <g id="Group_29" data-name="Group 29" transform="translate(-434.617 -701.599)">
    <path id="map-marked-alt-solid" d="M3.262,52.411A5.189,5.189,0,0,0,0,57.228V97.811a2.594,2.594,0,0,0,3.557,2.409L25.94,90.032V52.244a49.1,49.1,0,0,1-3.445-7.526Zm43.429,23.3a7.746,7.746,0,0,1-5.919-2.75c-3.187-3.761-6.577-8.045-9.645-12.438V90.03l31.128,10.376V60.526C59.188,64.918,55.8,69.2,52.61,72.964A7.75,7.75,0,0,1,46.691,75.712ZM89.826,43.529,67.443,53.716v46.691l22.678-9.071a5.187,5.187,0,0,0,3.262-4.817V45.938A2.594,2.594,0,0,0,89.826,43.529Z" transform="translate(434.617 686.592)" fill="#282c35"/>
    <path id="map-marked-alt-solid-2" data-name="map-marked-alt-solid" d="M64.31,0A20.427,20.427,0,0,0,43.882,20.427c0,9.121,13.351,25.745,18.466,31.779a2.557,2.557,0,0,0,3.923,0c5.115-6.034,18.466-22.658,18.466-31.779A20.427,20.427,0,0,0,64.31,0Zm0,27.237a6.809,6.809,0,1,1,6.809-6.809A6.808,6.808,0,0,1,64.31,27.237Z" transform="translate(416.999 701.599)" fill="gold"/>
  </g>
</svg>
